<svg width="28" height="28" viewBox="0 0 28 28" fill="none" xmlns="http://www.w3.org/2000/svg">
<path fill-rule="evenodd" clip-rule="evenodd" d="M22.8393 11.6007C22.6188 11.4346 22.3055 11.4785 22.1393 11.6988L22.1355 11.7037C22.1317 11.7086 22.1252 11.7169 22.116 11.7283C22.0977 11.7511 22.0688 11.7863 22.0293 11.8323C21.9503 11.9243 21.829 12.059 21.6655 12.2226C21.3383 12.55 20.8436 12.9914 20.182 13.4372C18.8605 14.3278 16.8754 15.2348 14.2204 15.2896C11.5752 15.3442 9.47935 14.44 8.03909 13.5167C7.31903 13.0551 6.76587 12.5904 6.39443 12.243C6.20887 12.0695 6.06917 11.9257 5.97717 11.8269C5.93119 11.7775 5.89717 11.7394 5.87535 11.7144C5.86443 11.702 5.85658 11.6928 5.8518 11.6872L5.84695 11.6815L5.8463 11.6807C5.67016 11.4685 5.35533 11.4389 5.14277 11.6148C4.93004 11.7909 4.90031 12.1061 5.07637 12.3188L5.46156 12C5.07637 12.3188 5.07705 12.3196 5.07705 12.3196L5.07803 12.3208L5.08089 12.3242L5.0902 12.3352C5.09798 12.3444 5.10894 12.3571 5.12305 12.3733C5.15125 12.4055 5.19205 12.4511 5.24523 12.5082C5.35154 12.6224 5.50751 12.7827 5.71138 12.9734C6.06339 13.3026 6.55971 13.7237 7.19128 14.1547L5.07022 17.2507C4.93512 17.4479 5.00083 17.7077 5.21698 17.8309C5.43314 17.9542 5.71788 17.8942 5.85298 17.697L7.9508 14.6349C8.88748 15.1821 10.0436 15.697 11.3982 16.0034L10.5495 19.4878C10.4942 19.7148 10.6511 19.9397 10.8999 19.9901C11.1487 20.0406 11.3953 19.8975 11.4506 19.6704L12.303 16.1709C12.9146 16.2594 13.5611 16.3034 14.2411 16.2894C14.9141 16.2755 15.5481 16.211 16.1432 16.1079L17.011 19.6704C17.0663 19.8975 17.3128 20.0406 17.5616 19.9901C17.8105 19.9397 17.9674 19.7148 17.9121 19.4878L17.0422 15.9169C18.2364 15.6151 19.2494 15.1631 20.0803 14.6803L22.147 17.697C22.2821 17.8942 22.5669 17.9542 22.783 17.8309C22.9992 17.7077 23.0649 17.4479 22.9298 17.2507L20.8394 14.1994C21.5135 13.735 22.0245 13.278 22.3728 12.9295C22.5554 12.7468 22.6938 12.5935 22.7878 12.484C22.8348 12.4293 22.8708 12.3855 22.8958 12.3544C22.9083 12.3388 22.918 12.3264 22.925 12.3175L22.9334 12.3066L22.9361 12.3031L22.937 12.3018L22.9377 12.3009C23.1039 12.0804 23.0598 11.7669 22.8393 11.6007Z" fill="#DBDBDB"/>
</svg>
