<svg width="24" height="24" viewBox="0 0 24 24" fill="none" xmlns="http://www.w3.org/2000/svg">
<path d="M12 14L11.6719 14.3773C11.86 14.5409 12.14 14.5409 12.3281 14.3773L12 14ZM7.63659 14.3913C7.90223 14.3158 8.05642 14.0393 7.98098 13.7737C7.90554 13.5081 7.62905 13.3539 7.36341 13.4293L7.63659 14.3913ZM16.6366 13.4293C16.371 13.3539 16.0945 13.5081 16.019 13.7737C15.9436 14.0393 16.0978 14.3158 16.3634 14.3913L16.6366 13.4293ZM15.5 7.91304C15.5 8.4462 15.2923 9.0669 14.9353 9.7267C14.5818 10.3798 14.1042 11.0308 13.6165 11.614C13.1301 12.1956 12.6422 12.6994 12.2754 13.0583C12.0922 13.2375 11.94 13.3798 11.8341 13.4768C11.7812 13.5253 11.7399 13.5624 11.7122 13.587C11.6984 13.5994 11.6879 13.6086 11.6811 13.6146C11.6777 13.6176 11.6753 13.6198 11.6737 13.6211C11.6729 13.6218 11.6724 13.6223 11.6721 13.6225C11.6719 13.6227 11.6719 13.6228 11.6718 13.6228C11.6718 13.6228 11.6718 13.6228 11.6718 13.6228C11.6719 13.6227 11.6719 13.6227 12 14C12.3281 14.3773 12.3282 14.3772 12.3283 14.3771C12.3283 14.3771 12.3284 14.377 12.3285 14.3769C12.3288 14.3767 12.329 14.3765 12.3294 14.3762C12.33 14.3756 12.3309 14.3748 12.3321 14.3738C12.3344 14.3718 12.3376 14.369 12.3418 14.3653C12.3501 14.3579 12.3622 14.3473 12.3776 14.3336C12.4085 14.306 12.4532 14.2658 12.5096 14.2141C12.6225 14.1107 12.7828 13.9609 12.9746 13.7732C13.3578 13.3984 13.8699 12.8697 14.3835 12.2556C14.8958 11.6431 15.4182 10.9354 15.8147 10.2026C16.2077 9.47658 16.5 8.68424 16.5 7.91304H15.5ZM12 14C12.3281 13.6227 12.3281 13.6227 12.3282 13.6228C12.3282 13.6228 12.3282 13.6228 12.3282 13.6228C12.3282 13.6228 12.3281 13.6227 12.3279 13.6225C12.3276 13.6223 12.3271 13.6218 12.3263 13.6211C12.3248 13.6198 12.3223 13.6176 12.3189 13.6146C12.3121 13.6086 12.3016 13.5994 12.2878 13.587C12.2601 13.5624 12.2188 13.5253 12.1659 13.4768C12.06 13.3798 11.9078 13.2375 11.7246 13.0583C11.3578 12.6994 10.8699 12.1956 10.3835 11.614C9.89576 11.0308 9.41818 10.3798 9.06474 9.7267C8.70767 9.0669 8.5 8.4462 8.5 7.91304H7.5C7.5 8.68424 7.79233 9.47658 8.18527 10.2026C8.58182 10.9354 9.10425 11.6431 9.61646 12.2556C10.1301 12.8697 10.6422 13.3984 11.0254 13.7732C11.2172 13.9609 11.3775 14.1107 11.4904 14.2141C11.5468 14.2658 11.5915 14.306 11.6224 14.3336C11.6378 14.3473 11.6499 14.3579 11.6582 14.3653C11.6624 14.369 11.6656 14.3718 11.6679 14.3738C11.6691 14.3748 11.67 14.3756 11.6706 14.3762C11.671 14.3765 11.6712 14.3767 11.6715 14.3769C11.6716 14.377 11.6717 14.3771 11.6717 14.3771C11.6718 14.3772 11.6719 14.3773 12 14ZM8.5 7.91304C8.5 6.03837 10.0566 4.5 12 4.5V3.5C9.52514 3.5 7.5 5.46548 7.5 7.91304H8.5ZM12 4.5C13.9434 4.5 15.5 6.03837 15.5 7.91304H16.5C16.5 5.46548 14.4749 3.5 12 3.5V4.5ZM19.5 16.6667C19.5 16.9527 19.363 17.2705 19.0204 17.608C18.6761 17.9471 18.1522 18.2756 17.4645 18.5622C16.0913 19.1343 14.1596 19.5 12 19.5V20.5C14.2587 20.5 16.3269 20.1195 17.8492 19.4852C18.6092 19.1686 19.2569 18.7788 19.7222 18.3203C20.1893 17.8602 20.5 17.3011 20.5 16.6667H19.5ZM12 19.5C9.84038 19.5 7.90866 19.1343 6.53545 18.5622C5.84776 18.2756 5.32388 17.9471 4.97957 17.608C4.63702 17.2705 4.5 16.9527 4.5 16.6667H3.5C3.5 17.3011 3.81069 17.8602 4.27779 18.3203C4.74312 18.7788 5.39082 19.1686 6.15084 19.4852C7.67306 20.1195 9.74135 20.5 12 20.5V19.5ZM4.5 16.6667C4.5 16.312 4.71424 15.9028 5.26296 15.4798C5.80666 15.0608 6.61675 14.6809 7.63659 14.3913L7.36341 13.4293C6.27048 13.7397 5.33057 14.1651 4.65247 14.6878C3.97937 15.2066 3.5 15.8756 3.5 16.6667H4.5ZM16.3634 14.3913C17.3833 14.6809 18.1933 15.0608 18.737 15.4798C19.2858 15.9028 19.5 16.312 19.5 16.6667H20.5C20.5 15.8756 20.0206 15.2066 19.3475 14.6878C18.6694 14.1651 17.7295 13.7397 16.6366 13.4293L16.3634 14.3913Z" fill="#2B7EFE"/>
</svg>
