<svg width="24" height="24" viewBox="0 0 24 24" fill="none" xmlns="http://www.w3.org/2000/svg">
<path fill-rule="evenodd" clip-rule="evenodd" d="M10.6947 7.52632C10.4997 8.48726 9.65009 9.21053 8.63158 9.21053C7.61307 9.21053 6.76349 8.48726 6.56843 7.52632H4.42105C4.18851 7.52632 4 7.3378 4 7.10526C4 6.87272 4.18851 6.68421 4.42105 6.68421H6.56843C6.76349 5.72327 7.61307 5 8.63158 5C9.65009 5 10.4997 5.72327 10.6947 6.68421H19.5789C19.8115 6.68421 20 6.87272 20 7.10526C20 7.3378 19.8115 7.52632 19.5789 7.52632H10.6947ZM9.89474 7.10526C9.89474 7.80289 9.3292 8.36842 8.63158 8.36842C7.93396 8.36842 7.36842 7.80289 7.36842 7.10526C7.36842 6.40764 7.93396 5.84211 8.63158 5.84211C9.3292 5.84211 9.89474 6.40764 9.89474 7.10526Z" fill="white"/>
<path fill-rule="evenodd" clip-rule="evenodd" d="M17.4316 12.5789C17.2365 13.5399 16.3869 14.2632 15.3684 14.2632C14.3499 14.2632 13.5003 13.5399 13.3053 12.5789H4.42105C4.18851 12.5789 4 12.3904 4 12.1579C4 11.9254 4.18851 11.7368 4.42105 11.7368H13.3053C13.5003 10.7759 14.3499 10.0526 15.3684 10.0526C16.3869 10.0526 17.2365 10.7759 17.4316 11.7368H19.5789C19.8115 11.7368 20 11.9254 20 12.1579C20 12.3904 19.8115 12.5789 19.5789 12.5789H17.4316ZM16.6316 12.1579C16.6316 12.8555 16.066 13.4211 15.3684 13.4211C14.6708 13.4211 14.1053 12.8555 14.1053 12.1579C14.1053 11.4603 14.6708 10.8947 15.3684 10.8947C16.066 10.8947 16.6316 11.4603 16.6316 12.1579Z" fill="white"/>
<path fill-rule="evenodd" clip-rule="evenodd" d="M8.63158 19.3158C9.65009 19.3158 10.4997 18.5925 10.6947 17.6316H19.5789C19.8115 17.6316 20 17.4431 20 17.2105C20 16.978 19.8115 16.7895 19.5789 16.7895H10.6947C10.4997 15.8285 9.65009 15.1053 8.63158 15.1053C7.61307 15.1053 6.76349 15.8285 6.56843 16.7895H4.42105C4.18851 16.7895 4 16.978 4 17.2105C4 17.4431 4.18851 17.6316 4.42105 17.6316H6.56843C6.76349 18.5925 7.61307 19.3158 8.63158 19.3158ZM8.63158 18.4737C9.3292 18.4737 9.89474 17.9081 9.89474 17.2105C9.89474 16.5129 9.3292 15.9474 8.63158 15.9474C7.93396 15.9474 7.36842 16.5129 7.36842 17.2105C7.36842 17.9081 7.93396 18.4737 8.63158 18.4737Z" fill="white"/>
</svg>
