<svg width="28" height="28" viewBox="0 0 28 28" fill="none" xmlns="http://www.w3.org/2000/svg">
<path fill-rule="evenodd" clip-rule="evenodd" d="M7.85355 7.14645C7.65829 6.95118 7.34171 6.95118 7.14645 7.14645C6.95118 7.34171 6.95118 7.65829 7.14645 7.85355L12.7929 13.5L7.14645 19.1464C6.95118 19.3417 6.95118 19.6583 7.14645 19.8536C7.34171 20.0488 7.65829 20.0488 7.85355 19.8536L13.5 14.2071L19.1464 19.8536C19.3417 20.0488 19.6583 20.0488 19.8536 19.8536C20.0488 19.6583 20.0488 19.3417 19.8536 19.1464L14.2071 13.5L19.8536 7.85355C20.0488 7.65829 20.0488 7.34171 19.8536 7.14645C19.6583 6.95118 19.3417 6.95118 19.1464 7.14645L13.5 12.7929L7.85355 7.14645Z" fill="#DBDBDB"/>
</svg>
